<svg id="Capa_1" enable-background="new 0 0 512 512" height="512" viewBox="0 0 512 512" width="512" xmlns="http://www.w3.org/2000/svg"><g><path d="m458.216 285.519-45.847-45.847c-1.915.081-3.837.132-5.771.132-74.109 0-134.402-60.292-134.402-134.402 0-1.858.048-3.706.123-5.546l-16.041-16.041-201.937 201.938v196.28h-54.062v29.967h511.443v-29.967h-53.505v-196.514zm-298.459 182.826c0-37.747 21.846-70.482 53.556-86.241-8.195-9.719-13.147-22.257-13.147-35.935 0-30.787 25.047-55.835 55.834-55.835s55.835 25.047 55.835 55.835c0 13.678-4.952 26.216-13.147 35.935 31.71 15.76 53.556 48.495 53.556 86.241v13.688h-29.967v-13.688c0-36.545-29.731-66.276-66.276-66.276-36.544 0-66.275 29.731-66.275 66.276v13.688h-29.967v-13.688z"/><path d="m256 372.035c14.263 0 25.867-11.604 25.867-25.867s-11.604-25.867-25.867-25.867-25.867 11.604-25.867 25.867 11.604 25.867 25.867 25.867z"/><path d="m0 256.702 21.19 21.19 235.089-235.089 22.143 22.143c3.259-10.303 7.724-20.075 13.236-29.144l-35.379-35.379-99.805 99.805v-60.135h-90.63v150.764z"/><path d="m447.23 233.52 43.58 43.58 21.19-21.19-35.658-35.658c-9.058 5.522-18.819 9.997-29.112 13.268z"/><path d="m301.196 105.402c0 58.119 47.283 105.402 105.402 105.402s105.402-47.283 105.402-105.402-47.283-105.402-105.402-105.402-105.402 47.283-105.402 105.402zm95.834-.095 42.191-42.191 21.19 21.19-63.381 63.382-44.246-44.247 21.19-21.19z"/></g></svg>