<svg width="24" height="22" viewBox="0 0 24 22" fill="none" xmlns="http://www.w3.org/2000/svg">
<g clip-path="url(#clip0)">
<path d="M21.9477 20.6942V10.9459L22.9957 11.9066L23.989 10.9961L21.7774 8.96881C23.1131 8.06814 23.9817 6.61769 23.9817 4.98457C23.9817 2.25868 21.5624 0.0410173 18.5887 0.0410173C16.8071 0.0410173 15.2248 0.837228 14.2423 2.06162L12.0131 0.018158L7.76817 3.90928V1.72273H2.86364V8.40514L0 11.0301L0.993281 11.9407L2.07848 10.9459V20.6942H0.0261094V21.9818H24V20.6942H21.9477ZM18.5887 1.32866C20.7878 1.32866 22.577 2.96869 22.577 4.98457C22.577 7.00045 20.7879 8.64053 18.5887 8.64053C16.3895 8.64053 14.6004 7.00049 14.6004 4.98457C14.6004 2.96865 16.3896 1.32866 18.5887 1.32866ZM4.26839 3.01037H6.36347V5.19692L4.26839 7.11745V3.01037ZM3.48319 9.65824L12.0131 1.83922L13.5424 3.24107C13.3186 3.78355 13.1957 4.37115 13.1957 4.98461C13.1957 7.71051 15.615 9.92821 18.5887 9.92821C19.258 9.92821 19.899 9.81559 20.4908 9.61042L20.543 9.65824V20.6942H16.5327V20.1242C16.5327 18.5022 15.5087 17.0957 14.0223 16.4185C14.4064 16.0009 14.6385 15.4622 14.6385 14.8744C14.6385 13.5516 13.4645 12.4753 12.0213 12.4753C10.5781 12.4753 9.40406 13.5515 9.40406 14.8744C9.40406 15.4622 9.63619 16.0009 10.0203 16.4185C8.53392 17.0957 7.50989 18.5023 7.50989 20.1242V20.6942H3.48319V9.65824ZM12.0213 15.9859C11.3527 15.9859 10.8088 15.4873 10.8088 14.8744C10.8088 14.2615 11.3527 13.7629 12.0213 13.7629C12.6899 13.7629 13.2338 14.2615 13.2338 14.8744C13.2338 15.4873 12.6899 15.9859 12.0213 15.9859ZM12.0213 17.2764C13.7343 17.2764 15.128 18.5539 15.128 20.1242V20.6942H8.91459V20.1242C8.91459 18.5539 10.3082 17.2764 12.0213 17.2764Z" fill="black"/>
<path d="M21.1543 4.2465L20.161 3.336L18.1833 5.14889L17.1025 4.1582L16.1093 5.06871L18.1833 6.96994L21.1543 4.2465Z" fill="black"/>
</g>
<defs>
<clipPath id="clip0">
<rect width="24" height="22" fill="white"/>
</clipPath>
</defs>
</svg>
