<svg id="Capa_1" enable-background="new 0 0 512 512" height="512" viewBox="0 0 512 512" width="512" xmlns="http://www.w3.org/2000/svg"><g><path d="m468.217 481.61v-226.869l22.359 22.359 21.19-21.19-47.181-47.181c28.495-20.961 47.025-54.717 47.025-92.724 0-63.439-51.612-115.05-115.051-115.05-38.007 0-71.763 18.53-92.724 47.025l-47.556-47.557-90.558 90.557v-50.887h-104.63v155.518l-61.091 61.091 21.19 21.19 23.151-23.15v226.868h-43.784v29.967h511.443v-29.967zm-71.658-450.688c46.915 0 85.084 38.168 85.084 85.083s-38.168 85.084-85.084 85.084-85.084-38.168-85.084-85.084 38.169-85.083 85.084-85.083zm-305.5 39.138h44.695v50.887l-44.695 44.696zm-16.751 154.714 181.971-181.97 32.626 32.625c-4.775 12.625-7.396 26.3-7.396 40.577 0 63.439 51.612 115.051 115.051 115.051 14.277 0 27.951-2.621 40.577-7.396l1.113 1.113v256.836h-85.552v-13.265c0-37.747-21.846-70.482-53.556-86.241 8.195-9.719 13.147-22.257 13.147-35.935 0-30.787-25.047-55.835-55.835-55.835s-55.834 25.047-55.834 55.835c0 13.678 4.952 26.216 13.147 35.935-31.71 15.76-53.556 48.495-53.556 86.241v13.265h-85.903zm182.146 147.261c-14.263 0-25.867-11.604-25.867-25.867s11.604-25.867 25.867-25.867 25.867 11.604 25.867 25.867-11.604 25.867-25.867 25.867zm0 30.034c36.545 0 66.276 29.731 66.276 66.276v13.265h-132.552v-13.265c0-36.545 29.731-66.276 66.276-66.276z"/><path d="m451.291 98.828-21.19-21.19-42.191 42.191-23.057-23.056-21.19 21.19 44.247 44.247z"/></g></svg>