<svg width="24" height="22" viewBox="0 0 24 22" fill="none" xmlns="http://www.w3.org/2000/svg">
<path d="M21.4789 12.2684L19.3298 10.2984C19.24 10.3019 19.1499 10.3041 19.0593 10.3041C15.5854 10.3041 12.7592 7.71341 12.7592 4.52899C12.7592 4.44916 12.7614 4.36975 12.7649 4.29069L12.013 3.60143L2.54722 12.2784V20.7124H0.0130615V22H23.987V20.7124H21.4789V12.2684H21.4789ZM7.48859 20.1242C7.48859 18.5023 8.51262 17.0957 9.99903 16.4185C9.61489 16.0009 9.38276 15.4622 9.38276 14.8744C9.38276 13.5516 10.5568 12.4753 12 12.4753C13.4431 12.4753 14.6172 13.5515 14.6172 14.8744C14.6172 15.4622 14.3851 16.0009 14.001 16.4185C15.4874 17.0957 16.5114 18.5023 16.5114 20.1242V20.7124H15.1067V20.1242C15.1067 18.5539 13.7131 17.2764 12 17.2764C10.287 17.2764 8.89339 18.5539 8.89339 20.1242V20.7124H7.48869V20.1242H7.48859Z" fill="black"/>
<path d="M12 15.9859C12.6686 15.9859 13.2125 15.4873 13.2125 14.8744C13.2125 14.2615 12.6686 13.7629 12 13.7629C11.3314 13.7629 10.7875 14.2615 10.7875 14.8744C10.7875 15.4873 11.3314 15.9859 12 15.9859Z" fill="black"/>
<path d="M0 11.0302L0.993281 11.9407L12.0131 1.83919L13.051 2.79065C13.2038 2.34794 13.4131 1.92805 13.6715 1.53836L12.0131 0.0181732L7.33472 4.30667V1.72274H3.08644V8.20088L0 11.0302Z" fill="black"/>
<path d="M20.964 10.0341L23.0068 11.9066L24.0001 10.9961L22.3286 9.46396C21.904 9.70123 21.4465 9.89352 20.964 10.0341V10.0341Z" fill="black"/>
<path d="M14.1185 4.52899C14.1185 7.02629 16.3349 9.05798 19.0593 9.05798C21.7836 9.05798 24 7.02629 24 4.52899C24 2.03169 21.7836 0 19.0593 0C16.3349 0 14.1185 2.03169 14.1185 4.52899ZM18.6108 4.52491L20.5885 2.71202L21.5818 3.62252L18.6108 6.34597L16.5367 4.44473L17.53 3.53422L18.6108 4.52491Z" fill="black"/>
</svg>
