<svg width="129" height="148" viewBox="0 0 129 148" fill="none" xmlns="http://www.w3.org/2000/svg">
<path d="M64.3436 14.379L88.9169 28.5692L101.377 21.3954L64.3436 0L2.48567 35.7429L14.8824 42.9167L64.3436 14.379Z" fill="white"/>
<path d="M113.774 28.5692L64.3439 57.1069L39.7706 42.9167L27.3424 50.0905L64.3439 71.4544L126.233 35.743L113.774 28.5692Z" fill="white"/>
<path d="M12.4282 76.5834L0 69.4096V112.138L61.8579 147.88V133.533L12.4282 104.964V76.5834Z" fill="white"/>
<path d="M0 55.0614L49.4297 83.5991V111.979L61.8579 119.185V76.4253L0 40.7139V55.0614Z" fill="white"/>
<path d="M103.863 69.4093V55.0618L66.8295 76.4258V147.88L79.2578 140.706V83.5995L103.863 69.4093Z" fill="white"/>
<path d="M116.259 47.8876V104.963L91.686 119.185V133.532L128.719 112.137V40.7139L116.259 47.8876Z" fill="white"/>
</svg>
