<svg xmlns="http://www.w3.org/2000/svg" xmlns:xlink="http://www.w3.org/1999/xlink" aria-hidden="true" focusable="false" width="1em" height="1em" style="font-size: 24px; transform: rotate(360deg);" preserveAspectRatio="xMidYMid meet" viewBox="0 0 24 24" class="iconify" data-inline="false" data-icon="mdi:human-handsup"><path d="M5 1c0 2.7 1.56 5.16 4 6.32V22h2v-7h2v7h2V7.31C17.44 6.16 19 3.7 19 1h-2a5 5 0 0 1-5 5a5 5 0 0 1-5-5m5 0c-1.11 0-2 .89-2 2c0 1.11.89 2 2 2c1.11 0 2-.89 2-2c0-1.11-.89-2-2-2z" fill="currentColor"></path></svg>